<svg xmlns="http://www.w3.org/2000/svg" xmlns:xlink="http://www.w3.org/1999/xlink" viewBox="0 0 194 180"><defs><linearGradient id="a" x1="80.5" x2="90.63" y1="60.66" y2="60.66" gradientUnits="userSpaceOnUse"><stop offset="0" stop-color="#ffef26"/><stop offset="0" stop-color="#ffea21"/><stop offset="0" stop-color="#fed70f"/><stop offset="0" stop-color="#fdcc04"/><stop offset="0" stop-color="#fdc800"/><stop offset="0" stop-color="#e95f32"/><stop offset=".9" stop-color="#f29531"/><stop offset="1" stop-color="#f18f34"/></linearGradient><linearGradient xlink:href="#a" id="c" x1="233.56" x2="335.82" y1="373.28" y2="373.28" gradientTransform="matrix(1.00015 0 0 .99773 -187.749 -315.61)"/><linearGradient xlink:href="#a" id="d" x1="139.91" x2="149.73" y1="135.72" y2="135.72" gradientTransform="matrix(1.00015 0 0 .99773 0 -.883)"/><linearGradient xlink:href="#a" id="b" x1="80.5" x2="90.63" y1="60.66" y2="60.66" gradientTransform="scale(1.00015 .99773)" gradientUnits="userSpaceOnUse"/></defs><path fill="url(#b)" d="m80.512 79.26 10.132-5.04V47.642l-10.132-5.856Z"/><path fill="url(#c)" d="m90.294 1.796-37.676 21.7a13.472 13.44 0 0 0-6.73 11.634v43.361a13.482 13.45 0 0 0 6.73 11.634l37.676 21.72a13.432 13.4 0 0 0 13.462 0l37.666-21.69a13.472 13.44 0 0 0 6.7-11.664V35.13a13.462 13.43 0 0 0-6.74-11.634l-37.666-21.7a13.482 13.45 0 0 0-13.422 0zm46.007 80.686-22.363 12.87v-34.35l-10.122-5.827v46.015l-4.07 2.355a5.32 5.308 0 0 1-5.321 0L57.759 82.482a5.32 5.308 0 0 1-2.66-4.6V35.76a5.3 5.288 0 0 1 2.66-4.59l12.822-7.383 46.247 27.258v11.673l10.132-5.837V45.207L80.712 17.949l13.583-7.842a5.32 5.308 0 0 1 5.32 0l36.566 21.062a5.32 5.308 0 0 1 2.66 4.59v42.124a5.34 5.328 0 0 1-2.63 4.599z"/><path d="M35.766 180.067v-29.218l-9.612 19.024h-6.641L9.832 150.85v29.228H0v-50.155h9.691l13.143 27.106 13.072-27.106h9.681v50.135zm38.525.43a18.523 18.456 0 0 1-13.571-5.502c-5.09-5.062-4.95-11.33-4.95-20s-.14-14.948 4.95-19.99a18.523 18.456 0 0 1 13.572-5.501c9.402 0 16.753 5.351 18.513 15.845H82.803c-1-3.987-3.53-7.106-8.482-7.106a8.131 8.102 0 0 0-6.29 2.601c-1.91 2.113-2.47 4.505-2.47 14.151s.56 12.047 2.47 14.16a8.131 8.102 0 0 0 6.29 2.6c4.951 0 7.492-3.097 8.482-7.104h10.001c-1.77 10.494-9.191 15.844-18.513 15.844zm25.424-.43v-8.24l18.803-21.755c1.84-2.182 2.62-3.738 2.62-6.059 0-3.727-2.19-6.268-6.08-6.268-3 0-6.151 1.554-6.151 6.407h-9.192c0-9.148 6.721-14.648 15.343-14.648 8.901 0 15.262 5.57 15.262 14.58 0 4.861-1.91 7.463-5.37 11.478l-14.063 16.264H130.3v8.24zm40.217 0v-36.87h9.821v36.87zm40.916-41.405v41.405h-9.822v-41.405h-13.142v-8.74H194v8.73z" class="cls-3"/><path fill="url(#d)" d="M139.932 129.5h9.821v10.057h-9.821z"/></svg>