<svg xmlns="http://www.w3.org/2000/svg" xmlns:xlink="http://www.w3.org/1999/xlink" viewBox="0 0 281.33 83.05"><defs><path id="reuse-0" d="M309.78 334.45v-10h3.81a10 10 0 0 1 2 .14 4 4 0 0 1 1.62.71 4.1 4.1 0 0 1 1.31 1.71 6.05 6.05 0 0 1 .44 2.36 6.27 6.27 0 0 1-.3 2 4.82 4.82 0 0 1-.75 1.45 4 4 0 0 1-1 .9 4.37 4.37 0 0 1-1.32.5 8.61 8.61 0 0 1-1.78.17zm1.46-1.17h2.37a6.43 6.43 0 0 0 1.72-.19 2.39 2.39 0 0 0 1-.52 3 3 0 0 0 .81-1.26 5.38 5.38 0 0 0 .3-1.92 4.26 4.26 0 0 0-.57-2.4 2.8 2.8 0 0 0-1.39-1.12 6.18 6.18 0 0 0-1.9-.21h-2.33zm11.39 1.17v-10h1.46v10zm4.97-3.2 1.39-.11a2.51 2.51 0 0 0 .45 1.23 2.4 2.4 0 0 0 1.12.77 4.56 4.56 0 0 0 1.7.3 4.47 4.47 0 0 0 1.48-.23 2 2 0 0 0 .95-.61 1.34 1.34 0 0 0 .32-.85 1.2 1.2 0 0 0-.3-.82 2.3 2.3 0 0 0-1-.59c-.3-.1-1-.27-2-.49a10.59 10.59 0 0 1-2.14-.62 2.85 2.85 0 0 1-1.18-.93 2.1 2.1 0 0 1-.39-1.24 2.34 2.34 0 0 1 .47-1.41 2.92 2.92 0 0 1 1.39-1 5.74 5.74 0 0 1 2-.34 6.29 6.29 0 0 1 2.17.35 3.1 3.1 0 0 1 1.44 1.05 2.87 2.87 0 0 1 .55 1.57l-1.41.1a2 2 0 0 0-.76-1.43 3.25 3.25 0 0 0-1.93-.48 3.37 3.37 0 0 0-1.94.44 1.26 1.26 0 0 0-.61 1.06 1.08 1.08 0 0 0 .43.88 6.21 6.21 0 0 0 2.21.71 15.8 15.8 0 0 1 2.45.63 3.34 3.34 0 0 1 1.43 1 2.28 2.28 0 0 1 .46 1.42 2.57 2.57 0 0 1-.5 1.5 3.3 3.3 0 0 1-1.46 1.09 5.54 5.54 0 0 1-2.13.39 7 7 0 0 1-2.52-.39 3.54 3.54 0 0 1-1.6-1.19 3.16 3.16 0 0 1-.54-1.76zm15.07 3.2v-8.79H339v-1.17h8.78v1.17h-3.67v8.79zm8.08 0v-10h4.91a7.14 7.14 0 0 1 2.25.27 2.44 2.44 0 0 1 1.23.94 2.63 2.63 0 0 1 .46 1.51 2.35 2.35 0 0 1-.76 1.78 4 4 0 0 1-2.36.93 4.36 4.36 0 0 1 .89.49 7.5 7.5 0 0 1 1.21 1.33l1.93 2.71h-1.84l-1.47-2.07a16.68 16.68 0 0 0-1.06-1.37 3.27 3.27 0 0 0-.74-.67 2.25 2.25 0 0 0-.67-.27 5.39 5.39 0 0 0-.82 0h-1.7v4.42zm1.46-5.57h3.15a5.48 5.48 0 0 0 1.58-.18 1.77 1.77 0 0 0 .86-.6 1.53 1.53 0 0 0 .29-.89 1.45 1.45 0 0 0-.57-1.17 2.9 2.9 0 0 0-1.8-.45h-3.51zm11.36 5.57v-10H365v10zm5.43 0v-10h4.15a5.71 5.71 0 0 1 2 .3 2.55 2.55 0 0 1 1.2.93 2.28 2.28 0 0 1 .43 1.32 2.08 2.08 0 0 1-.38 1.2 2.78 2.78 0 0 1-1.16.91 3 3 0 0 1 1.54.9 2.27 2.27 0 0 1 .54 1.51 2.64 2.64 0 0 1-.33 1.3 2.56 2.56 0 0 1-.81.93 3.52 3.52 0 0 1-1.21.49 7.65 7.65 0 0 1-1.79.17zm1.46-5.78h2.4a5.9 5.9 0 0 0 1.4-.11 1.59 1.59 0 0 0 .84-.5 1.32 1.32 0 0 0 .28-.87 1.51 1.51 0 0 0-.26-.87 1.39 1.39 0 0 0-.76-.52 7.14 7.14 0 0 0-1.68-.14h-2.22zm0 4.61h2.76a7.28 7.28 0 0 0 1 0 2.86 2.86 0 0 0 .84-.27 1.5 1.5 0 0 0 .56-.56 1.55 1.55 0 0 0 .22-.84 1.51 1.51 0 0 0-.32-1 1.66 1.66 0 0 0-.88-.57 5.61 5.61 0 0 0-1.62-.17h-2.56zm17.6-8.79h1.47v5.75a6.22 6.22 0 0 1-.38 2.39 3 3 0 0 1-1.36 1.44 5.27 5.27 0 0 1-2.59.55 5.86 5.86 0 0 1-2.55-.48 2.87 2.87 0 0 1-1.41-1.4 6.07 6.07 0 0 1-.43-2.5v-5.75h1.47v5.75a5.05 5.05 0 0 0 .27 1.91 1.93 1.93 0 0 0 .92 1 3.54 3.54 0 0 0 1.6.33 3.24 3.24 0 0 0 2.3-.66 3.5 3.5 0 0 0 .69-2.53zm8.15 9.96v-8.79h-3.65v-1.17h8.78v1.17h-3.66v8.79zm8.31 0v-10H406v10zm5.03-4.85a5.09 5.09 0 0 1 1.48-3.89 5.34 5.34 0 0 1 3.82-1.4 5.81 5.81 0 0 1 2.77.66 4.48 4.48 0 0 1 1.87 1.84 5.47 5.47 0 0 1 .65 2.67 5.4 5.4 0 0 1-.68 2.71 4.41 4.41 0 0 1-1.93 1.82 6 6 0 0 1-2.69.61 5.71 5.71 0 0 1-2.79-.68 4.57 4.57 0 0 1-1.87-1.85 5.23 5.23 0 0 1-.63-2.49zm1.51 0a3.78 3.78 0 0 0 1.07 2.84 4.08 4.08 0 0 0 5.43 0 4 4 0 0 0 1.07-3 4.61 4.61 0 0 0-.46-2.13 3.23 3.23 0 0 0-1.34-1.4 3.82 3.82 0 0 0-2-.5 3.63 3.63 0 0 0-3.8 4.17zm12.38 4.85v-10h1.5l5.82 7.82v-7.82h1.4v10h-1.5l-5.82-7.83v7.83zm24.49-1.17a4.53 4.53 0 0 1-1.46 1 4.26 4.26 0 0 1-1.72.34 3.59 3.59 0 0 1-2.7-1 2.69 2.69 0 0 1-.8-1.89 2.43 2.43 0 0 1 .66-1.66 5.41 5.41 0 0 1 2-1.31 5.81 5.81 0 0 1-1-1.26 1.92 1.92 0 0 1 .53-2.49 3 3 0 0 1 2-.66 2.76 2.76 0 0 1 1.85.62 1.94 1.94 0 0 1 .72 1.51c0 .94-.69 1.75-2.09 2.42l2 2.28a5.67 5.67 0 0 0 .53-1.39l1.41.27a6.59 6.59 0 0 1-1 2.15 7.37 7.37 0 0 0 1.73 1.53l-.92 1a7.84 7.84 0 0 1-1.74-1.46zm-.85-1-2.49-2.78a4.47 4.47 0 0 0-1.49 1.1 1.65 1.65 0 0 0-.39 1 2 2 0 0 0 .54 1.26 1.87 1.87 0 0 0 1.52.65 2.68 2.68 0 0 0 1.26-.34 3 3 0 0 0 1.05-.86zm-1.91-4.23a3.38 3.38 0 0 0 1.14-.82 1.24 1.24 0 0 0 .26-.78 1.05 1.05 0 0 0-.36-.83 1.26 1.26 0 0 0-.89-.33 1.37 1.37 0 0 0-.92.32 1 1 0 0 0-.37.78 1 1 0 0 0 .14.49 2.41 2.41 0 0 0 .39.54zm13.58 3.2 1.38-.11a2.61 2.61 0 0 0 .45 1.23 2.45 2.45 0 0 0 1.12.77 4.56 4.56 0 0 0 1.7.3 4.47 4.47 0 0 0 1.48-.23 2.07 2.07 0 0 0 1-.61 1.33 1.33 0 0 0 .31-.85 1.2 1.2 0 0 0-.3-.82 2.24 2.24 0 0 0-1-.59c-.3-.1-1-.27-2-.49a10.59 10.59 0 0 1-2.14-.62 2.91 2.91 0 0 1-1.18-.93 2.1 2.1 0 0 1-.39-1.24 2.41 2.41 0 0 1 .47-1.41 2.92 2.92 0 0 1 1.39-1 5.74 5.74 0 0 1 2-.34 6.29 6.29 0 0 1 2.17.35 3.13 3.13 0 0 1 1.45 1.05 2.86 2.86 0 0 1 .54 1.57l-1.4.1a2 2 0 0 0-.77-1.43 3.25 3.25 0 0 0-1.93-.48 3.37 3.37 0 0 0-1.94.44 1.26 1.26 0 0 0-.61 1.06 1.08 1.08 0 0 0 .43.88 6.21 6.21 0 0 0 2.21.71 15.8 15.8 0 0 1 2.45.63 3.34 3.34 0 0 1 1.43 1 2.28 2.28 0 0 1 .46 1.42 2.57 2.57 0 0 1-.5 1.5 3.3 3.3 0 0 1-1.46 1.09 5.54 5.54 0 0 1-2.13.39 7.06 7.06 0 0 1-2.52-.39 3.54 3.54 0 0 1-1.6-1.19 3.08 3.08 0 0 1-.57-1.76zm12.25 3.2v-10h8v1.17h-6.54v3h6.12v1.17h-6.12v3.4h6.8v1.17zm11.76 0v-10h4.91a7.14 7.14 0 0 1 2.25.27 2.4 2.4 0 0 1 1.23.94 2.63 2.63 0 0 1 .46 1.51 2.35 2.35 0 0 1-.76 1.78 4 4 0 0 1-2.36.93 4.1 4.1 0 0 1 .89.49 7.5 7.5 0 0 1 1.21 1.33l1.93 2.71h-1.84l-1.47-2.07a16.68 16.68 0 0 0-1.06-1.37 3.07 3.07 0 0 0-.74-.67 2.25 2.25 0 0 0-.67-.27 5.39 5.39 0 0 0-.82 0h-1.7v4.42zm1.46-5.57h3.15a5.48 5.48 0 0 0 1.58-.18 1.77 1.77 0 0 0 .86-.6 1.53 1.53 0 0 0 .29-.89 1.45 1.45 0 0 0-.57-1.17 2.9 2.9 0 0 0-1.8-.45h-3.51zm14 5.57-4.29-10h1.59l2.88 7.24c.23.58.42 1.12.58 1.63.17-.55.37-1.09.59-1.63l3-7.24h1.49l-4.34 10zm8.83 0v-10h1.47v10zm13.38-3.45 1.46.33a4.41 4.41 0 0 1-1.65 2.48 4.92 4.92 0 0 1-2.93.85 5.71 5.71 0 0 1-2.92-.66 4.23 4.23 0 0 1-1.7-1.89 6.22 6.22 0 0 1-.59-2.68 5.39 5.39 0 0 1 .66-2.71 4.33 4.33 0 0 1 1.88-1.76 6 6 0 0 1 2.69-.6 4.9 4.9 0 0 1 2.8.76 4 4 0 0 1 1.58 2.14l-1.45.31a3.08 3.08 0 0 0-1.12-1.59 3.21 3.21 0 0 0-1.84-.49 3.83 3.83 0 0 0-2.13.55 2.9 2.9 0 0 0-1.21 1.47 5.48 5.48 0 0 0-.35 1.92 5.64 5.64 0 0 0 .41 2.22 2.89 2.89 0 0 0 1.28 1.35 3.84 3.84 0 0 0 1.89.47 3.34 3.34 0 0 0 2.08-.64 3.16 3.16 0 0 0 1.16-1.83zm4.72 3.45v-10h8v1.17h-6.54v3h6.13v1.17h-6.13v3.4h6.8v1.17zm11.22-3.2 1.38-.11a2.62 2.62 0 0 0 .46 1.23 2.42 2.42 0 0 0 1.11.77 4.6 4.6 0 0 0 1.7.3 4.53 4.53 0 0 0 1.49-.23 2.09 2.09 0 0 0 1-.61 1.34 1.34 0 0 0 .32-.85 1.21 1.21 0 0 0-.31-.82 2.2 2.2 0 0 0-1-.59c-.3-.1-1-.27-2-.49a10.44 10.44 0 0 1-2.13-.62 3 3 0 0 1-1.19-.93 2.1 2.1 0 0 1-.39-1.24 2.35 2.35 0 0 1 .48-1.41 2.92 2.92 0 0 1 1.39-1 5.73 5.73 0 0 1 2-.34 6.25 6.25 0 0 1 2.17.35 3.13 3.13 0 0 1 1.45 1.05 2.87 2.87 0 0 1 .55 1.57l-1.41.1a2 2 0 0 0-.77-1.43 3.23 3.23 0 0 0-1.93-.48 3.41 3.41 0 0 0-1.94.44 1.27 1.27 0 0 0-.6 1.06 1.08 1.08 0 0 0 .43.88 6.21 6.21 0 0 0 2.21.71 15.8 15.8 0 0 1 2.45.63 3.4 3.4 0 0 1 1.43 1 2.34 2.34 0 0 1 .46 1.42 2.51 2.51 0 0 1-.51 1.5 3.26 3.26 0 0 1-1.45 1.09 5.63 5.63 0 0 1-2.14.39 7.1 7.1 0 0 1-2.52-.39A3.51 3.51 0 0 1 537 333a3.09 3.09 0 0 1-.63-1.75z" class="cls-1"/></defs><defs><style>.cls-1{fill:#696969}.cls-3{fill:#cbcbcb}.cls-4{fill:#88e04e}.cls-9{fill:#bfeea1}.cls-10{fill:#8be052}</style></defs><g id="Logo"><path d="m454.25 292.48-10.85-5.21a19.21 19.21 0 0 1-16.33 8.48c-10.34 0-18.72-7.42-18.72-16.58s8.38-16.58 18.72-16.58a19.21 19.21 0 0 1 16.33 8.48l10.85-5.21c-5.3-8.46-15.48-14.19-27.18-14.19-17.15 0-31.05 12.31-31.05 27.5s13.9 27.5 31.05 27.5c11.7 0 21.88-5.73 27.18-14.19z" class="cls-1" transform="translate(-294.72 -251.64)"/><path d="M94.56.14v54.89H82.23V15.76L67.9 40.56H57.23l-14.67-24.8v39.27H29.9V0h18l14.33 23.58L76.39 0l18.17.14z" class="cls-1"/><path d="M475.48 267.2a8.27 8.27 0 0 0 3.8-6.75c0-4.85-4.72-8.78-10.55-8.78s-10.55 3.93-10.55 8.78h6.05a4.5 4.5 0 0 1 9 0 4.44 4.44 0 0 1-1.32 3.18l-13.73 9.21V278h21.1v-4.16h-13.63z" class="cls-1" transform="translate(-294.72 -251.64)"/><path fill="#fe0000" d="M194.11 0h12.17v12.17h-12.17z"/><path d="M194.11 14.83h12.17v40.2h-12.17zm14.95-2.66h15v42.86h11.84V12.17h15.16V0h-42v12.17z" class="cls-1"/><path d="M239.25 14.83h11.73v11.73h-11.73z" class="cls-3"/><path d="M254.5 14.83h11.73v11.73H254.5z" class="cls-4"/><path fill="#bed9ac" d="M209.17 14.83h11.73v11.73h-11.73z"/><path d="M209.17 29.07h11.73V40.8h-11.73z" class="cls-4"/><path fill="#bfd9ad" d="M224.2 57.93h11.73v11.73H224.2z"/><path fill="#c2efa6" d="M209.17 58.1h11.73v11.73h-11.73z"/><rect width="11.73" height="11.73" x="194.33" y="58.1" fill="#82de47" rx="2.26"/><path d="M30.36 57.93h11.73v11.73H30.36zm-15.43 0h11.73v11.73H14.93z" class="cls-3"/><path d="M14.93 42.84h11.73v11.73H14.93z" class="cls-9"/><rect width="11.73" height="11.73" y="42.84" class="cls-10" rx="2.49"/><path d="M14.93 27.53h11.73v11.73H14.93z" class="cls-3"/><path d="M14.92 12.03h11.73v11.73H14.92z" class="cls-10"/><rect width="11.73" height="11.73" x="269.6" y="14.83" class="cls-9" rx="2.47"/></g><g id="Distrib_et_service" data-name="Distrib et service"><use xlink:href="#reuse-0" class="cls-1" transform="translate(-294.72 -251.64)"/><use xlink:href="#reuse-0" class="cls-1" transform="translate(-294.72 -251.64)"/></g></svg>