<svg xmlns="http://www.w3.org/2000/svg" xmlns:xlink="http://www.w3.org/1999/xlink" viewBox="0 0 194 184"><defs><linearGradient id="a" x1="80.5" x2="90.63" y1="60.66" y2="60.66" gradientUnits="userSpaceOnUse"><stop offset="0" stop-color="#ffef26"/><stop offset="0" stop-color="#ffea21"/><stop offset="0" stop-color="#fed70f"/><stop offset="0" stop-color="#fdcc04"/><stop offset="0" stop-color="#fdc800"/><stop offset="0" stop-color="#e95f32"/><stop offset=".9" stop-color="#f29531"/><stop offset="1" stop-color="#f18f34"/></linearGradient><linearGradient xlink:href="#a" id="c" x1="233.56" x2="335.82" y1="373.28" y2="373.28" gradientTransform="matrix(1.05656 0 0 1.05272 -203.814 -333.016)"/><linearGradient xlink:href="#a" id="d" x1="80.5" x2="90.63" y1="60.66" y2="60.66" gradientTransform="matrix(1.05656 0 0 1.05272 -5.476 -.012)" gradientUnits="userSpaceOnUse"/><linearGradient xlink:href="#a" id="b" x1="138.664" x2="148.626" y1="133.92" y2="133.92" gradientTransform="matrix(1 0 0 1.14648 0 -15.09)" gradientUnits="userSpaceOnUse"/></defs><path fill="#fff" d="M193.152 133.465q.353 0 .565.286.283.214.283.57v6.995q0 .357-.283.643-.212.214-.565.214h-12.647q-.353 0-.353.357v40.042q0 .358-.283.643-.211.214-.565.214h-8.266q-.353 0-.636-.214-.212-.285-.212-.643v-40.04q0-.358-.353-.358h-12.294q-.353 0-.636-.214-.212-.286-.212-.643v-6.994q0-.357.212-.571.283-.286.636-.286z" font-family="Barlow" font-size="71.043" font-weight="700" letter-spacing="2.004" style="-inkscape-font-specification:&quot;Barlow Bold&quot;"/><rect width="9.962" height="9.962" x="138.664" y="133.465" fill="url(#b)" ry="1.053"/><path fill="#fff" d="M139.512 183.43c-.235 0-.447-.073-.636-.215a1.052 1.051 0 0 1-.212-.643v-35.045c0-.238.071-.428.212-.57.189-.19.4-.286.636-.286h8.267a.67.67 0 0 1 .565.286.681.68 0 0 1 .282.57v35.046a.893.892 0 0 1-.282.643.76.76 0 0 1-.565.214zm-29.901-9.065q-.14.142-.07.285t.282.143h19.147q.354 0 .565.285.283.214.283.57v6.925q0 .357-.283.642-.211.214-.565.214H97.177q-.354 0-.636-.214-.212-.285-.212-.643v-6.566q0-.643.424-1.07 3.462-3.428 7.065-7.424 3.603-4.069 4.522-5.068 1.978-2.355 4.027-4.496 6.43-7.21 6.43-10.708 0-2.497-1.767-4.068-1.766-1.642-4.592-1.642-2.827 0-4.593 1.642-1.766 1.57-1.766 4.211v1.785q0 .357-.283.642-.212.214-.565.214h-8.337q-.353 0-.636-.214-.212-.285-.212-.642v-3.354q.212-3.855 2.402-6.782 2.19-2.997 5.794-4.568 3.674-1.57 8.196-1.57 5.016 0 8.69 1.927 3.744 1.856 5.723 5.068 2.049 3.212 2.049 7.138 0 2.997-1.484 6.139-1.484 3.14-4.451 6.78-2.19 2.784-4.734 5.495-2.543 2.713-7.56 7.853zM69.89 184q-5.51 0-9.68-2.141-4.168-2.212-6.429-6.138-2.26-3.927-2.26-9.066v-16.488q0-5.139 2.26-9.064 2.261-3.927 6.43-6.067 4.168-2.142 9.679-2.142 5.44 0 9.538 2.07 4.169 1.998 6.43 5.782 2.331 3.71 2.331 8.636 0 .642-.848.785l-8.266.5h-.141q-.707 0-.707-.785 0-3.784-2.332-6.068-2.26-2.284-6.005-2.284-3.815 0-6.147 2.284-2.26 2.284-2.26 6.068v17.202q0 3.71 2.26 5.995 2.332 2.284 6.147 2.284 3.745 0 6.005-2.284 2.332-2.284 2.332-5.995 0-.785.848-.785l8.266.356q.353 0 .565.214.283.215.283.5 0 4.926-2.332 8.708-2.26 3.783-6.429 5.854Q75.33 184 69.89 184zm-38.096-49.964q.353-.571.989-.571h8.266q.353 0 .565.286.283.214.283.57v48.251q0 .358-.283.643-.212.214-.565.214h-8.266q-.354 0-.636-.214-.212-.285-.212-.643v-31.477q0-.285-.141-.285-.142 0-.283.213l-7.49 11.85q-.352.57-.988.57h-4.169q-.636 0-.989-.57l-7.49-11.85q-.14-.213-.282-.142-.141 0-.141.285v31.406q0 .358-.283.643-.212.214-.565.214H.848q-.353 0-.636-.214Q0 182.93 0 182.572v-48.25q0-.357.212-.571.283-.286.636-.286h8.266q.636 0 .99.571l10.596 16.63q.212.43.424 0z" font-family="Barlow" font-size="71.043" font-weight="700" letter-spacing="2.004" style="-inkscape-font-specification:&quot;Barlow Bold&quot;"/><path fill="url(#c)" d="m89.91 1.883-39.8 22.896A14.232 14.18 0 0 0 43 37.054v45.75a14.242 14.191 0 0 0 7.11 12.276l39.8 22.917a14.19 14.139 0 0 0 14.222 0l39.79-22.885A14.232 14.18 0 0 0 151 82.805v-45.75a14.221 14.17 0 0 0-7.12-12.276L104.09 1.883a14.242 14.191 0 0 0-14.18 0zm48.602 85.133-23.624 13.58V64.351l-10.693-6.148v48.55l-4.3 2.486a5.62 5.6 0 0 1-5.62 0L55.54 87.016a5.62 5.6 0 0 1-2.81-4.854V37.72a5.599 5.58 0 0 1 2.81-4.843l13.545-7.79 48.855 28.76v12.317l10.704-6.16V47.687l-48.857-28.76 14.35-8.274a5.62 5.6 0 0 1 5.62 0l38.628 22.223a5.62 5.6 0 0 1 2.81 4.843v44.445a5.641 5.622 0 0 1-2.779 4.853z"/><path fill="url(#d)" d="m79.577 83.616 10.703-5.318V50.256l-10.703-6.18Z"/></svg>