<svg xmlns="http://www.w3.org/2000/svg" xmlns:xlink="http://www.w3.org/1999/xlink" viewBox="0 0 194 180"><defs><linearGradient id="a" x1="80.5" x2="90.63" y1="60.66" y2="60.66" gradientUnits="userSpaceOnUse"><stop offset="0" stop-color="#ffef26"/><stop offset="0" stop-color="#ffea21"/><stop offset="0" stop-color="#fed70f"/><stop offset="0" stop-color="#fdcc04"/><stop offset="0" stop-color="#fdc800"/><stop offset="0" stop-color="#e95f32"/><stop offset=".9" stop-color="#f29531"/><stop offset="1" stop-color="#f18f34"/></linearGradient><linearGradient xlink:href="#a" id="c" x1="233.56" x2="335.82" y1="373.28" y2="373.28" gradientTransform="matrix(1.00015 0 0 .99773 -187.749 -315.61)"/><linearGradient xlink:href="#a" id="d" x1="80.5" x2="90.63" y1="60.66" y2="60.66" gradientTransform="scale(1.00015 .99773)" gradientUnits="userSpaceOnUse"/><linearGradient xlink:href="#a" id="b" x1="138.664" x2="148.626" y1="133.92" y2="133.92" gradientUnits="userSpaceOnUse"/></defs><path fill="#fff" d="M193.152 129.576q.353 0 .565.286.283.214.283.571v7.001q0 .357-.283.643-.212.214-.565.214h-12.647q-.353 0-.353.358v40.075q0 .358-.283.643-.211.215-.565.215h-8.266q-.353 0-.636-.215-.212-.285-.212-.643V138.65q0-.358-.353-.358h-12.294q-.353 0-.636-.214-.212-.286-.212-.643v-7q0-.358.212-.572.283-.286.636-.286z" font-family="Barlow" font-size="71.043" font-weight="700" letter-spacing="2.004" style="-inkscape-font-specification:&quot;Barlow Bold&quot;"/><rect width="9.962" height="8.689" x="138.664" y="129.576" fill="url(#b)" ry=".919"/><path fill="#fff" d="M139.512 179.582c-.235 0-.447-.072-.636-.215a1.052 1.052 0 0 1-.212-.643V143.65c0-.238.071-.429.212-.571.189-.19.4-.286.636-.286h8.267a.67.67 0 0 1 .565.286.681.681 0 0 1 .282.571v35.075a.893.893 0 0 1-.282.643.76.76 0 0 1-.565.215zm-29.901-9.072q-.14.142-.07.285t.282.143h19.147q.354 0 .565.286.283.214.283.571v6.93q0 .357-.283.642-.211.215-.565.215H97.177q-.354 0-.636-.215-.212-.285-.212-.643v-6.572q0-.643.424-1.071 3.462-3.43 7.065-7.43 3.603-4.072 4.522-5.072 1.978-2.357 4.027-4.5 6.43-7.215 6.43-10.716 0-2.5-1.767-4.072-1.766-1.643-4.592-1.643-2.827 0-4.593 1.643-1.766 1.572-1.766 4.215v1.786q0 .357-.283.643-.212.214-.565.214h-8.337q-.353 0-.636-.214-.212-.286-.212-.643v-3.357q.212-3.858 2.402-6.787 2.19-3 5.794-4.572 3.674-1.571 8.196-1.571 5.016 0 8.69 1.928 3.744 1.858 5.723 5.072 2.049 3.215 2.049 7.144 0 3-1.484 6.144-1.484 3.143-4.451 6.786-2.19 2.786-4.734 5.5-2.543 2.715-7.56 7.859zm-39.721 9.643q-5.51 0-9.68-2.143-4.168-2.214-6.429-6.143-2.26-3.93-2.26-9.073v-16.502q0-5.143 2.26-9.072 2.261-3.93 6.43-6.072 4.168-2.143 9.679-2.143 5.44 0 9.538 2.071 4.169 2 6.43 5.787 2.331 3.714 2.331 8.643 0 .643-.848.786l-8.266.5h-.141q-.707 0-.707-.785 0-3.787-2.332-6.073-2.26-2.286-6.005-2.286-3.815 0-6.147 2.286-2.26 2.286-2.26 6.073v17.216q0 3.714 2.26 6 2.332 2.286 6.147 2.286 3.745 0 6.005-2.286 2.332-2.286 2.332-6 0-.786.848-.786l8.266.357q.353 0 .565.214.283.215.283.5 0 4.93-2.332 8.716-2.26 3.786-6.429 5.858-4.098 2.071-9.538 2.071zm-38.096-50.005q.353-.572.989-.572h8.266q.353 0 .565.286.283.214.283.571v48.291q0 .358-.283.643-.212.215-.565.215h-8.266q-.354 0-.636-.215-.212-.285-.212-.643v-31.503q0-.286-.141-.286-.142 0-.283.214l-7.49 11.859q-.352.571-.988.571h-4.169q-.636 0-.989-.571l-7.49-11.859q-.14-.214-.282-.142-.141 0-.141.285v31.432q0 .358-.283.643-.212.215-.565.215H.848q-.353 0-.636-.215-.212-.285-.212-.643v-48.29q0-.358.212-.572.283-.286.636-.286h8.266q.636 0 .99.572L20.7 146.792q.212.429.424 0z" font-family="Barlow" font-size="71.043" font-weight="700" letter-spacing="2.004" style="-inkscape-font-specification:&quot;Barlow Bold&quot;"/><path fill="url(#c)" d="m90.294 1.796-37.676 21.7a13.472 13.44 0 0 0-6.73 11.634v43.361a13.482 13.45 0 0 0 6.73 11.634l37.676 21.72a13.432 13.4 0 0 0 13.462 0l37.666-21.69a13.472 13.44 0 0 0 6.7-11.664V35.13a13.462 13.43 0 0 0-6.74-11.634l-37.666-21.7a13.482 13.45 0 0 0-13.422 0zm46.007 80.686-22.363 12.87v-34.35l-10.122-5.827v46.015l-4.07 2.355a5.32 5.308 0 0 1-5.321 0L57.759 82.482a5.32 5.308 0 0 1-2.66-4.6V35.76a5.3 5.288 0 0 1 2.66-4.59l12.822-7.383 46.247 27.258v11.673l10.132-5.837V45.207L80.712 17.949l13.583-7.842a5.32 5.308 0 0 1 5.32 0l36.566 21.062a5.32 5.308 0 0 1 2.66 4.59v42.124a5.34 5.328 0 0 1-2.63 4.599z" transform="matrix(1.0564 0 0 1.05599 -5.476 -.012)"/><path fill="url(#d)" d="m80.512 79.26 10.132-5.04V47.642l-10.132-5.856Z" transform="matrix(1.0564 0 0 1.05599 -5.476 -.012)"/></svg>