<svg id="Logo" xmlns="http://www.w3.org/2000/svg" viewBox="0 0 281.33 69.83"><defs><style>.cls-1{fill:#696969}.cls-3{fill:#cbcbcb}.cls-4{fill:#88e04e}.cls-9{fill:#bfeea1}.cls-10{fill:#8be052}</style></defs><path class="cls-1" d="M454.25 292.48l-10.85-5.21a19.21 19.21 0 01-16.33 8.48c-10.34 0-18.72-7.42-18.72-16.58s8.38-16.58 18.72-16.58a19.21 19.21 0 0116.33 8.48l10.85-5.21c-5.3-8.46-15.48-14.19-27.18-14.19-17.15 0-31.05 12.31-31.05 27.5s13.9 27.5 31.05 27.5c11.7 0 21.88-5.73 27.18-14.19z" transform="translate(-294.72 -251.64)"/><path class="cls-1" d="M94.56.14v54.89H82.23V15.76L67.9 40.56H57.23l-14.67-24.8v39.27H29.9V0h18l14.33 23.58L76.39 0l18.17.14z"/><path class="cls-1" d="M475.48 267.2a8.27 8.27 0 003.8-6.75c0-4.85-4.72-8.78-10.55-8.78s-10.55 3.93-10.55 8.78h6.05a4.5 4.5 0 019 0 4.44 4.44 0 01-1.32 3.18l-13.73 9.21V278h21.1v-4.16h-13.63z" transform="translate(-294.72 -251.64)"/><path fill="#fe0000" d="M194.11 0h12.17v12.17h-12.17z"/><path class="cls-1" d="M194.11 14.83h12.17v40.2h-12.17zM209.06 12.17h15v42.86h11.84V12.17h15.16V0h-42v12.17z"/><path class="cls-3" d="M239.25 14.83h11.73v11.73h-11.73z"/><path class="cls-4" d="M254.5 14.83h11.73v11.73H254.5z"/><path fill="#bed9ac" d="M209.17 14.83h11.73v11.73h-11.73z"/><path class="cls-4" d="M209.17 29.07h11.73V40.8h-11.73z"/><path fill="#bfd9ad" d="M224.2 57.93h11.73v11.73H224.2z"/><path fill="#c2efa6" d="M209.17 58.1h11.73v11.73h-11.73z"/><rect x="194.33" y="58.1" width="11.73" height="11.73" rx="2.26" fill="#82de47"/><path class="cls-3" d="M30.36 57.93h11.73v11.73H30.36zM14.93 57.93h11.73v11.73H14.93z"/><path class="cls-9" d="M14.93 42.84h11.73v11.73H14.93z"/><rect class="cls-10" y="42.84" width="11.73" height="11.73" rx="2.49"/><path class="cls-3" d="M14.93 27.53h11.73v11.73H14.93z"/><path class="cls-10" d="M14.92 12.03h11.73v11.73H14.92z"/><rect class="cls-9" x="269.6" y="14.83" width="11.73" height="11.73" rx="2.47"/></svg>