<svg xmlns="http://www.w3.org/2000/svg" xmlns:xlink="http://www.w3.org/1999/xlink" viewBox="0 0 326 120"><defs><linearGradient id="a" x1="80.5" x2="90.63" y1="60.66" y2="60.66" gradientUnits="userSpaceOnUse"><stop offset="0" stop-color="#ffef26"/><stop offset="0" stop-color="#ffea21"/><stop offset="0" stop-color="#fed70f"/><stop offset="0" stop-color="#fdcc04"/><stop offset="0" stop-color="#fdc800"/><stop offset="0" stop-color="#e95f32"/><stop offset=".9" stop-color="#f29531"/><stop offset="1" stop-color="#f18f34"/></linearGradient><linearGradient xlink:href="#a" id="c" x1="233.56" x2="335.82" y1="373.28" y2="373.28" gradientTransform="matrix(1.0558 0 0 1.0536 -246.636 -333.293)"/><linearGradient xlink:href="#a" id="d" x1="80.5" x2="90.63" y1="60.66" y2="60.66" gradientTransform="matrix(1.0558 0 0 1.0536 -48.441 -.012)" gradientUnits="userSpaceOnUse"/><linearGradient xlink:href="#a" id="b" x1="138.664" x2="148.626" y1="133.92" y2="133.92" gradientTransform="matrix(.99928 0 0 1 132.14 -94.005)" gradientUnits="userSpaceOnUse"/></defs><path d="M325.153 35.571q.352 0 .564.286.283.214.283.571v7.001q0 .357-.283.643-.212.214-.564.214h-12.638q-.353 0-.353.358v40.075q0 .358-.283.643-.21.215-.564.215h-8.26q-.353 0-.636-.215-.212-.285-.212-.643V44.645q0-.358-.353-.358H289.57q-.352 0-.635-.214-.212-.286-.212-.643v-7q0-.358.212-.572.283-.286.635-.286z" font-family="Barlow" font-size="71.043" font-weight="700" letter-spacing="2.004" style="-inkscape-font-specification:&quot;Barlow Bold&quot;"/><rect width="9.955" height="8.689" x="270.704" y="35.571" fill="url(#b)" ry=".919"/><path d="M271.551 85.577c-.234 0-.446-.072-.635-.215a1.051 1.052 0 0 1-.212-.643V49.645c0-.238.07-.429.212-.571.189-.19.4-.286.635-.286h8.261a.67.67 0 0 1 .565.286.68.681 0 0 1 .282.571V84.72a.892.893 0 0 1-.282.643.76.76 0 0 1-.565.215zm-29.879-9.072q-.14.142-.07.285t.282.143h19.133q.354 0 .565.286.282.214.282.571v6.93q0 .357-.282.642-.211.215-.565.215h-31.77q-.354 0-.636-.215-.211-.285-.211-.643v-6.572q0-.643.423-1.071 3.46-3.43 7.06-7.43 3.6-4.072 4.519-5.072 1.977-2.357 4.024-4.5 6.425-7.215 6.425-10.716 0-2.5-1.765-4.072-1.765-1.643-4.589-1.643-2.825 0-4.59 1.643-1.764 1.572-1.764 4.215v1.786q0 .357-.283.643-.212.214-.565.214h-8.33q-.354 0-.636-.214-.212-.286-.212-.643V47.93q.212-3.858 2.4-6.787 2.188-3 5.79-4.572Q239.978 35 244.497 35q5.012 0 8.684 1.928 3.741 1.858 5.719 5.072 2.047 3.215 2.047 7.144 0 3-1.483 6.144-1.483 3.143-4.448 6.786-2.188 2.786-4.73 5.5-2.541 2.715-7.555 7.859zm-39.692 9.643q-5.506 0-9.673-2.143-4.165-2.214-6.425-6.143-2.258-3.93-2.258-9.073V52.287q0-5.143 2.258-9.072 2.26-3.93 6.426-6.072Q196.473 35 201.98 35q5.436 0 9.53 2.071 4.167 2 6.426 5.787 2.33 3.714 2.33 8.643 0 .643-.848.786l-8.26.5h-.14q-.707 0-.707-.785 0-3.787-2.33-6.073-2.259-2.286-6.001-2.286-3.813 0-6.143 2.286-2.258 2.286-2.258 6.073v17.216q0 3.714 2.258 6 2.33 2.286 6.143 2.286 3.742 0 6-2.286 2.33-2.286 2.33-6 0-.786.848-.786l8.26.357q.353 0 .565.214.282.215.282.5 0 4.93-2.33 8.716-2.258 3.786-6.424 5.858-4.095 2.071-9.531 2.071zm-38.07-50.005q.353-.572.989-.572h8.26q.352 0 .564.286.283.214.283.571v48.291q0 .358-.283.643-.212.215-.564.215h-8.26q-.354 0-.636-.215-.212-.285-.212-.643V53.216q0-.286-.14-.286-.143 0-.284.214l-7.484 11.859q-.352.571-.987.571h-4.166q-.636 0-.989-.571l-7.484-11.859q-.14-.214-.282-.142-.14 0-.14.285v31.432q0 .358-.284.643-.212.215-.564.215h-8.26q-.353 0-.636-.215-.212-.285-.212-.643v-48.29q0-.358.212-.572.283-.286.636-.286h8.26q.635 0 .989.572l10.588 16.644q.212.429.424 0z" font-family="Barlow" font-size="71.043" font-weight="700" letter-spacing="2.004" style="-inkscape-font-specification:&quot;Barlow Bold&quot;"/><path fill="url(#c)" d="M46.877 1.885 7.104 24.8A14.222 14.193 0 0 0 0 37.085v45.789a14.232 14.203 0 0 0 7.104 12.285l39.773 22.936a14.18 14.15 0 0 0 14.21 0l39.762-22.904a14.222 14.193 0 0 0 7.073-12.317v-45.79a14.211 14.182 0 0 0-7.115-12.284L61.045 1.885a14.232 14.203 0 0 0-14.168 0zm48.566 85.203-23.607 13.59V64.407l-10.685-6.154v48.592l-4.297 2.486a5.616 5.605 0 0 1-5.617 0L12.531 87.088a5.616 5.605 0 0 1-2.808-4.857V37.75a5.595 5.584 0 0 1 2.808-4.848l13.536-7.796 48.82 28.784v12.327l10.696-6.164V47.726L36.76 18.942l14.34-8.281a5.616 5.605 0 0 1 5.615 0l38.6 22.241a5.616 5.605 0 0 1 2.809 4.847v44.483a5.637 5.626 0 0 1-2.777 4.856z"/><path fill="url(#d)" d="m36.55 83.686 10.696-5.322V50.297L36.55 44.114Z"/></svg>